<svg width="61" height="60" viewBox="0 0 61 60" fill="none" xmlns="http://www.w3.org/2000/svg">
<path d="M55.8705 0H4.2843C1.92055 0 0 1.91361 0 4.26273V54.8612C0 57.2104 1.92055 59.124 4.2843 59.124H55.8705C58.2342 59.124 60.1682 57.2104 60.1682 54.8612V4.26273C60.1682 1.91361 58.2342 0 55.8705 0ZM18.1848 50.6777H9.26698V22.4618H18.1982V50.6777H18.1848ZM13.7259 18.6082C10.8652 18.6082 8.55517 16.3251 8.55517 13.5272C8.55517 10.7294 10.8652 8.44628 13.7259 8.44628C16.5731 8.44628 18.8966 10.7294 18.8966 13.5272C18.8966 16.3383 16.5866 18.6082 13.7259 18.6082ZM51.6131 50.6777H42.6953V36.9525C42.6953 33.6795 42.6281 29.4696 38.0618 29.4696C33.4149 29.4696 32.703 33.0329 32.703 36.7149V50.6777H23.7853V22.4618H32.3404V26.3154H32.4613C33.6566 24.0983 36.571 21.7624 40.909 21.7624C49.9343 21.7624 51.6131 27.6088 51.6131 35.2104V50.6777Z" fill="white"/>
</svg>
