<svg width="60" height="59" viewBox="0 0 60 59" fill="none" xmlns="http://www.w3.org/2000/svg">
<path d="M20.0685 47.1539C20.0685 47.3961 19.7903 47.5898 19.4395 47.5898C19.0403 47.6262 18.7621 47.4324 18.7621 47.1539C18.7621 46.9117 19.0403 46.718 19.3911 46.718C19.754 46.6816 20.0685 46.8754 20.0685 47.1539ZM16.3065 46.609C16.2218 46.8512 16.4637 47.1297 16.8266 47.2023C17.1411 47.3234 17.504 47.2023 17.5766 46.9602C17.6492 46.718 17.4194 46.4395 17.0565 46.3305C16.7419 46.2457 16.3911 46.3668 16.3065 46.609ZM21.6532 46.4031C21.3024 46.4879 21.0605 46.718 21.0968 46.9965C21.1331 47.2387 21.4476 47.3961 21.8105 47.3113C22.1613 47.2266 22.4032 46.9965 22.3669 46.7543C22.3306 46.5242 22.004 46.3668 21.6532 46.4031ZM29.6129 0C12.8347 0 0 12.7512 0 29.5469C0 42.9762 8.44355 54.468 20.504 58.5125C22.0524 58.791 22.5968 57.8344 22.5968 57.0473C22.5968 56.2965 22.5605 52.1551 22.5605 49.6121C22.5605 49.6121 14.0927 51.4285 12.3145 46.0035C12.3145 46.0035 10.9355 42.4797 8.95161 41.5715C8.95161 41.5715 6.18145 39.6703 9.14516 39.7066C9.14516 39.7066 12.1573 39.9488 13.8145 42.8309C16.4637 47.5051 20.9032 46.1609 22.6331 45.3617C22.9113 43.4242 23.6976 42.0801 24.5685 41.2809C17.8065 40.5301 10.9839 39.5492 10.9839 27.9C10.9839 24.5699 11.9032 22.8988 13.8387 20.7676C13.5242 19.9805 12.496 16.7352 14.1532 12.5453C16.6815 11.7582 22.5 15.8148 22.5 15.8148C24.9194 15.1367 27.5202 14.7855 30.0968 14.7855C32.6734 14.7855 35.2742 15.1367 37.6935 15.8148C37.6935 15.8148 43.5121 11.7461 46.0403 12.5453C47.6976 16.7473 46.6694 19.9805 46.3548 20.7676C48.2903 22.9109 49.4758 24.582 49.4758 27.9C49.4758 39.5855 42.3508 40.518 35.5887 41.2809C36.7016 42.2375 37.6452 44.0539 37.6452 46.8996C37.6452 50.9805 37.6089 56.0301 37.6089 57.023C37.6089 57.8102 38.1653 58.7668 39.7016 58.4883C51.7984 54.468 60 42.9762 60 29.5469C60 12.7512 46.3911 0 29.6129 0ZM11.7581 41.7652C11.6008 41.8863 11.6371 42.1648 11.8427 42.3949C12.0363 42.5887 12.3145 42.6734 12.4718 42.516C12.629 42.3949 12.5927 42.1164 12.3871 41.8863C12.1935 41.6926 11.9153 41.6078 11.7581 41.7652ZM10.4516 40.7844C10.3669 40.9418 10.4879 41.1355 10.7298 41.2566C10.9234 41.3777 11.1653 41.3414 11.25 41.1719C11.3347 41.0145 11.2137 40.8207 10.9718 40.6996C10.7298 40.627 10.5363 40.6633 10.4516 40.7844ZM14.371 45.0953C14.1774 45.2527 14.25 45.616 14.5282 45.8461C14.8065 46.1246 15.1573 46.1609 15.3145 45.9672C15.4718 45.8098 15.3992 45.4465 15.1573 45.2164C14.8911 44.9379 14.5282 44.9016 14.371 45.0953ZM12.9919 43.3152C12.7984 43.4363 12.7984 43.7512 12.9919 44.0297C13.1855 44.3082 13.5121 44.4293 13.6694 44.3082C13.8629 44.1508 13.8629 43.8359 13.6694 43.5574C13.5 43.2789 13.1855 43.1578 12.9919 43.3152Z" fill="white"/>
</svg>
